HIERARCHY
ROOT hip
{
	OFFSET 0.000000 0.000000 0.000000 
	CHANNELS 6 Xposition Yposition Zposition Zrotation Xrotation Yrotation
	JOINT abdomen
	{
		OFFSET 0.000000 3.402643 0.000000 
		CHANNELS 3 Zrotation Xrotation Yrotation
		JOINT chest
		{
			OFFSET 0.000000 8.438565 -0.680529 
			CHANNELS 3 Zrotation Xrotation Yrotation
			JOINT neck
			{
				OFFSET 0.000000 10.207942 -0.272212 
				CHANNELS 3 Zrotation Xrotation Yrotation
				JOINT head
				{
					OFFSET 0.000000 3.130431 0.000000 
					CHANNELS 3 Zrotation Xrotation Yrotation
					End Site
					{
						OFFSET 0.000000 3.130435 0.000000 
					}
				}
			}
			JOINT lCollar
			{
				OFFSET 3.470700 6.669187 -0.816635 
				CHANNELS 3 Zrotation Xrotation Yrotation
				JOINT lShldr
				{
					OFFSET 3.198488 0.000000 0.000000 
					CHANNELS 3 Zrotation Xrotation Yrotation
					JOINT lForeArm
					{
						OFFSET 10.139888 0.000000 0.000000 
						CHANNELS 3 Zrotation Xrotation Yrotation
						JOINT lHand
						{
							OFFSET 8.370511 0.000000 0.000000 
							CHANNELS 3 Zrotation Xrotation Yrotation
							End Site
							{
								OFFSET 4.083176 0.000000 0.000000 
							}
						}
					}
				}
			}
			JOINT rCollar
			{
				OFFSET -3.470700 6.669187 -0.816635 
				CHANNELS 3 Zrotation Xrotation Yrotation
				JOINT rShldr
				{
					OFFSET -3.198488 0.000000 0.000000 
					CHANNELS 3 Zrotation Xrotation Yrotation
					JOINT rForeArm
					{
						OFFSET -10.139888 0.000000 0.000000 
						CHANNELS 3 Zrotation Xrotation Yrotation
						JOINT rHand
						{
							OFFSET -8.370511 0.000000 0.000000 
							CHANNELS 3 Zrotation Xrotation Yrotation
							End Site
							{
								OFFSET -4.083176 0.000000 0.000000 
							}
						}
					}
				}
			}
		}
	}
	JOINT lThigh
	{
		OFFSET 5.308129 -1.633274 1.361059 
		CHANNELS 3 Zrotation Xrotation Yrotation
		JOINT lShin
		{
			OFFSET -2.041588 -20.007561 0.000000 
			CHANNELS 3 Zrotation Xrotation Yrotation
			JOINT lFoot
			{
				OFFSET 0.000000 -19.190928 -1.224953 
				CHANNELS 3 Zrotation Xrotation Yrotation
				End Site
				{
					OFFSET 0.000000 -2.449906 4.627600 
				}
			}
		}
	}
	JOINT rThigh
	{
		OFFSET -5.308129 -1.633274 1.361059 
		CHANNELS 3 Zrotation Xrotation Yrotation
		JOINT rShin
		{
			OFFSET 2.041588 -20.007561 0.000000 
			CHANNELS 3 Zrotation Xrotation Yrotation
			JOINT rFoot
			{
				OFFSET 0.000000 -19.190928 -1.224953 
				CHANNELS 3 Zrotation Xrotation Yrotation
				End Site
				{
					OFFSET 0.000000 -2.449906 4.627600 
				}
			}
		}
	}
}
MOTION
Frames: 13
Frame Time: 0.016667
0.139932 48.500679 -0.274051 -0.917968 1.923830 1.689300 2.453300 15.509500 -2.612400 -2.696860 -20.157499 -4.067920 12.874200 33.727699 -16.238701 5.707900 21.476999 -6.163420 -1.998780 -0.069785 1.998780 -85.698898 18.546801 -0.913276 -1.278280 -1.929920 -50.843102 -0.086307 -5.126760 0.127000 1.998780 -0.069785 -1.998780 82.483002 22.979500 -7.948400 0.421049 1.142550 45.157398 0.075951 34.020000 -0.035002 -1.047880 -9.586530 -0.899844 3.243010 40.166199 0.743670 10.897500 -45.601398 18.922100 2.748200 -20.835501 -1.377280 -2.672260 42.982800 -1.367060 -6.605850 -35.057400 -7.932340 
-0.979412 48.493279 0.354786 -0.722656 2.021480 0.439332 2.424820 15.627100 -2.524110 -2.732560 -20.161501 -3.891340 13.046100 33.409199 -16.181801 5.817400 21.368999 -6.142210 -1.998780 -0.069785 1.998780 -85.434700 18.303600 -0.367408 -1.275350 -1.932810 -50.725899 -0.085274 -5.038840 0.137001 1.998780 -0.069785 -1.998780 83.159401 21.528200 -7.484050 0.402208 1.130600 43.908001 0.075642 34.215000 -0.034429 -1.269210 -9.854970 -0.320612 3.293070 40.830002 0.703531 11.281700 -45.870098 19.382299 2.713760 -21.558800 -0.917467 -2.703690 43.991600 -1.360050 0.168203 -34.984001 3.143300 
-2.069740 48.493477 0.953209 -0.625000 1.923830 -0.507917 2.344300 15.647800 -2.554340 -2.843950 -20.080601 -4.014060 13.017200 33.055000 -15.916500 5.876560 21.212500 -6.038970 -1.998780 -0.069785 1.998780 -85.189301 17.795000 0.032436 -1.271680 -1.936420 -50.579399 -0.086568 -5.009560 0.126977 1.998780 -0.069785 -1.998780 83.807198 19.718100 -6.882000 0.383410 1.119230 42.678101 0.076195 33.862999 -0.035458 -1.388490 -9.886870 -0.004901 3.285010 41.313099 0.738439 11.763000 -45.712502 20.033800 2.580460 -21.971201 -1.048790 -2.667360 44.739498 -1.399710 -0.046336 -34.195999 2.752750 
-3.172510 48.513680 1.545710 -0.781250 1.845700 -1.552870 2.037750 15.388100 -2.407650 -2.919020 -20.131500 -3.921920 13.217700 32.700500 -15.900100 5.955570 21.036301 -6.015310 -1.998780 -0.069785 1.998780 -84.736298 17.763100 0.596357 -1.269230 -1.938820 -50.481701 -0.085251 -5.048620 0.137003 1.998780 -0.069785 -1.998780 84.800301 17.138700 -6.772950 0.368320 1.110500 41.701900 0.077243 33.180000 -0.037435 -1.086970 -9.934510 0.637523 3.254160 41.718102 0.758479 11.822100 -45.364601 20.121000 2.815650 -22.404699 -1.193660 -2.640850 45.369499 -1.443500 -0.430877 -33.344101 1.985810 
-4.292650 48.553379 2.173080 -0.654297 1.660150 -2.568470 2.148580 15.376900 -2.475980 -2.957230 -20.051600 -4.003010 13.134600 32.405998 -15.647300 6.004740 20.889601 -5.940610 -1.998780 -0.069785 1.998780 -84.529099 17.341700 0.962274 -1.263580 -1.944310 -50.257099 -0.086676 -4.960730 0.126967 1.998780 -0.069785 -1.998780 85.615799 14.199500 -6.366450 0.349098 1.099860 40.472000 0.077622 32.925999 -0.038160 -0.985902 -9.654780 1.483280 3.259620 41.875198 0.763822 11.774100 -44.951000 20.094700 2.693830 -22.607300 -1.660640 -2.615730 45.950199 -1.480940 -0.842793 -32.401600 1.144800 
-5.401810 48.593380 2.803060 -0.390625 1.494150 -3.584060 2.283820 15.658400 -2.552570 -3.022420 -19.845301 -4.049550 12.923700 32.112400 -15.404900 5.953870 20.743299 -5.848570 -1.998780 -0.069785 1.998780 -84.216499 16.882500 1.020040 -1.254440 -1.953120 -49.895599 -0.086568 -5.009560 0.126977 1.998780 -0.069785 -1.998780 86.452400 10.969300 -5.781340 0.330896 1.090280 39.320202 0.078139 32.574001 -0.039160 -1.054310 -9.360910 2.283980 3.280550 41.902901 0.743786 11.751100 -44.544800 20.104300 2.354960 -22.758301 -2.375440 -2.602780 46.382801 -1.504270 -1.188090 -31.450399 0.365147 
-6.523900 48.632179 3.446330 -0.214844 1.474610 -4.765660 2.333610 15.608900 -2.560380 -3.077810 -19.894400 -4.040520 12.639000 32.099499 -15.111700 5.903700 20.714300 -5.747050 -1.998780 -0.069785 1.998780 -84.023201 16.420099 1.433900 -1.244500 -1.962570 -49.504902 -0.086894 -4.863080 0.126949 1.998780 -0.069785 -1.998780 87.302803 7.968070 -5.615260 0.314694 1.082140 38.305000 0.078437 32.368999 -0.039738 -0.964552 -9.006710 3.211360 3.295300 41.793499 0.726846 11.965700 -44.234901 20.385401 2.249270 -22.797600 -2.859620 -2.587720 46.520599 -1.510930 -1.269260 -30.627300 0.045712 
-7.617520 48.663380 4.113600 -0.078125 1.738280 -6.123060 2.223060 15.649400 -2.482360 -3.108510 -20.033001 -3.960630 12.165800 32.189800 -14.761400 5.753650 20.705200 -5.618500 -1.998780 -0.069785 1.998780 -83.901199 15.917800 1.886060 -1.233240 -1.973110 -49.065399 -0.086912 -4.452920 0.125826 1.998780 -0.069785 -1.998780 88.059097 5.237410 -5.577360 0.302293 1.076140 37.534000 0.079420 31.676001 -0.041678 -0.907656 -8.882860 4.011500 3.293420 41.675701 0.726869 12.558500 -44.182098 21.133600 2.281880 -22.919100 -3.060190 -2.589800 46.334400 -1.513470 -0.911715 -29.515200 0.536080 
-8.748280 48.692780 4.753120 0.107421 1.650390 -7.255840 2.381440 15.432400 -2.538370 -3.110720 -20.149500 -3.994830 11.745100 32.389999 -14.558900 5.614340 20.832899 -5.570070 -1.998780 -0.069785 1.998780 -83.820099 15.394400 2.376350 -1.221400 -1.984040 -48.606201 -0.087075 -3.974410 0.124715 1.998780 -0.069785 -1.998780 88.575798 2.786620 -5.633690 0.292980 1.071780 36.958000 0.081207 30.348000 -0.045316 -0.936514 -8.458250 4.810660 3.299750 41.390499 0.726595 14.657000 -43.141102 24.132200 2.256530 -22.578199 -3.213620 -2.593620 46.088699 -1.500120 -0.444111 -28.923800 1.316730 
-9.838540 48.676479 5.419620 0.302734 2.021480 -8.789010 2.271590 15.512100 -2.460540 -3.115050 -20.347099 -3.895930 11.071600 32.472900 -13.982000 5.444220 20.814100 -5.371670 -1.998780 -0.069785 1.998780 -83.777802 14.588300 2.799430 -1.206910 -1.997160 -48.049400 -0.086694 -3.310340 0.133600 1.998780 -0.069785 -1.998780 88.989197 0.833084 -5.651610 0.285052 1.068150 36.470001 0.082863 29.028999 -0.048833 -1.048420 -8.042540 5.033560 3.345700 40.816299 0.674562 12.998400 -44.895100 21.396999 2.394890 -22.690100 -2.922320 -2.608070 45.764400 -1.487940 0.155044 -28.319201 2.402180 
-10.936100 48.698177 6.069220 0.615235 2.246090 -10.214700 2.301590 15.492100 -2.422300 -3.096990 -20.505100 -3.816600 10.500100 32.452000 -13.453800 5.333910 20.756001 -5.198090 -1.998780 -0.069785 1.998780 -83.770699 13.880800 3.151150 -1.194360 -2.008330 -47.570702 -0.086095 -2.743910 0.132462 1.998780 -0.069785 -1.998780 89.240402 -0.770455 -5.687520 0.280440 1.066080 36.186901 0.099299 27.622999 -0.063701 -1.340540 -7.612580 5.437820 3.363310 40.155998 0.649891 13.483900 -45.405899 21.841900 2.544830 -22.636299 -2.261770 -2.585250 45.451401 -1.491140 0.522228 -27.972099 3.020430 
-12.017500 48.712479 6.703380 0.800781 2.548830 -11.620900 2.686970 15.593900 -2.518730 -2.798740 -20.594601 -3.745620 9.778900 32.340900 -12.766400 5.253570 20.688000 -5.016160 -1.998780 -0.069785 1.998780 -84.172401 12.971800 3.327490 -1.182490 -2.018720 -47.121399 -0.086245 -2.275170 0.131382 1.998780 -0.069785 -1.998780 88.898598 -1.635390 -5.403200 0.271985 1.062350 35.669498 0.095509 26.569000 -0.055362 -1.556720 -7.302500 5.655930 3.384740 39.554199 0.619673 13.971500 -46.110401 22.232901 2.673080 -22.695499 -2.018430 -2.600340 45.048698 -1.484050 0.886010 -27.316799 3.702240 
-13.098300 48.768780 7.319680 1.025390 2.714850 -12.919800 2.876890 15.483300 -2.615010 -2.688550 -20.700300 -3.821590 9.102490 32.215500 -12.013600 5.193300 20.629700 -4.786930 -1.998780 -0.069785 1.998780 -84.413101 11.894500 3.650480 -1.175230 -2.024990 -46.847900 -0.086447 -2.187280 0.131374 1.998780 -0.069785 -1.998780 88.692200 -2.063170 -5.403510 0.267346 1.060340 35.386501 0.096068 26.031000 -0.056708 -1.853090 -6.924730 5.763730 3.402850 38.962200 0.589692 14.517500 -46.567799 22.792400 3.000570 -22.600300 -1.135970 -2.631890 44.624199 -1.432590 0.879005 -27.138201 3.514280 
